<?xml version="1.0" encoding="UTF-8"?>
<svg version="1.1" xmlns="http://www.w3.org/2000/svg" width="315" height="303">
<rect width="315" height="303" fill="#ffffff"/>
<path d="M0 0 C1.62405982 -0.00299721 3.24811893 -0.00640102 4.87217712 -0.01017761 C9.25875255 -0.01896476 13.64530844 -0.02135349 18.03189182 -0.0219934 C20.77955131 -0.02270692 23.52720592 -0.02484694 26.2748642 -0.02749062 C35.88067436 -0.03672663 45.4864707 -0.0408277 55.09228516 -0.04003906 C64.0138333 -0.03943878 72.93532089 -0.04998544 81.85685372 -0.06578273 C89.54383763 -0.07890379 97.23080185 -0.08422105 104.91779685 -0.08358365 C109.49673583 -0.08333 114.07562093 -0.08610722 118.65454865 -0.0967617 C122.96547302 -0.1065199 127.27629285 -0.10646957 131.58722115 -0.09924507 C133.15843167 -0.09820875 134.72964898 -0.10050462 136.30084801 -0.10660553 C160.34851011 -0.19384421 183.54798756 3.51364635 201.51074219 20.73901367 C222.53069868 43.25778446 221.3723761 72.38594885 221.26120639 101.19939828 C221.24717019 105.75135743 221.25383632 110.30329729 221.25733948 114.85527039 C221.26002577 122.48788898 221.24669862 130.12034888 221.22338867 137.75292969 C221.19674116 146.53839156 221.19505299 155.32358926 221.20677704 164.10907775 C221.21760481 172.61897317 221.21133176 181.12877437 221.19722176 189.63866234 C221.19150994 193.2351629 221.19150618 196.83159342 221.19628716 200.42809486 C221.20110639 204.66946825 221.19075376 208.91055705 221.1693325 213.15187645 C221.16383286 214.69525061 221.16323531 216.2386525 221.16828537 217.7820282 C221.22729633 238.42541172 217.02157472 259.26934872 202.50683594 274.89526367 C184.89327055 291.1868396 160.98308723 294.51677852 137.96386719 294.82495117 C136.20448349 294.85779036 134.44510973 294.89116569 132.68574524 294.92501831 C109.52810284 295.33343881 86.36228277 295.29610306 63.2019043 295.27563477 C56.68416561 295.26987496 50.16646757 295.27327527 43.64873028 295.27920723 C38.53615519 295.28284373 33.42358956 295.28166122 28.31101418 295.27907944 C25.90767219 295.27842198 23.5043293 295.27919618 21.10098839 295.28155899 C9.95498062 295.29013967 -1.17512462 295.24867826 -12.31030273 294.71508789 C-13.09113126 294.67846102 -13.87195978 294.64183414 -14.67644978 294.60409737 C-36.07572043 293.43270737 -57.88196394 287.86107005 -72.99316406 271.80541992 C-93.1910633 247.92561197 -90.40522117 216.96585771 -90.41042113 187.64112759 C-90.41113955 185.35821485 -90.41328851 183.07530784 -90.41591835 180.79239655 C-90.42512426 172.78647998 -90.42925912 164.78057989 -90.4284668 156.7746582 C-90.42786683 149.37827801 -90.43841507 141.98197092 -90.45421046 134.5856092 C-90.46739353 128.17819375 -90.47264625 121.7708019 -90.47201139 115.36337304 C-90.4717596 111.56175919 -90.47443017 107.76021055 -90.48518944 103.95861053 C-90.64707027 42.31959997 -90.64707027 42.31959997 -69.99707031 20.71557617 C-50.677156 2.68365614 -25.24090075 -0.00934686 0 0 Z M-19.24316406 52.14526367 C-19.57316406 53.13526367 -19.90316406 54.12526367 -20.24316406 55.14526367 C-20.90316406 55.14526367 -21.56316406 55.14526367 -22.24316406 55.14526367 C-23.05331132 56.42542003 -23.84004091 57.7203932 -24.61816406 59.02026367 C-25.05902344 59.73956055 -25.49988281 60.45885742 -25.95410156 61.19995117 C-29.62994536 69.59869731 -29.52782812 78.53215413 -29.48608398 87.54956055 C-29.48798233 88.85478668 -29.48988068 90.16001282 -29.49183655 91.50479126 C-29.4966443 95.05385461 -29.48908338 98.60279038 -29.4788835 102.1518383 C-29.47004771 105.87445791 -29.47186143 109.59707419 -29.47224426 113.31970215 C-29.47131089 119.56008012 -29.46266628 125.80040914 -29.44897461 132.04077148 C-29.43319741 139.25843387 -29.42797858 146.47604292 -29.42871016 153.69372129 C-29.42938467 161.38736377 -29.42245524 169.08098568 -29.41326356 176.77462196 C-29.41113108 178.99081627 -29.41042226 181.20700727 -29.41002464 183.42320251 C-29.40883671 187.54086847 -29.39913833 191.65847087 -29.38842773 195.77612305 C-29.38888092 197.00622101 -29.38933411 198.23631897 -29.38980103 199.50369263 C-29.38553604 200.619487 -29.38127106 201.73528137 -29.37687683 202.8848877 C-29.37520099 203.858218 -29.37352514 204.83154831 -29.37179852 205.83437347 C-29.39496144 208.17234517 -29.39496144 208.17234517 -28.24316406 210.14526367 C-15.1572649 209.68122469 -2.73660961 206.47494385 7.38183594 197.74291992 C15.13318317 189.41483555 14.12952933 178.13412784 13.94433594 167.58276367 C13.92925985 166.08212608 13.91557663 164.58147382 13.90332031 163.08081055 C13.87055075 159.43531915 13.81893073 155.79038732 13.75683594 152.14526367 C14.46606201 152.15396484 15.17528809 152.16266602 15.90600586 152.17163086 C38.97779598 152.33513633 62.64897188 146.40246046 79.75683594 130.14526367 C85.10338286 124.73172746 85.10338286 124.73172746 88.75683594 118.14526367 C88.42683594 117.15526367 88.09683594 116.16526367 87.75683594 115.14526367 C86.88653244 115.1497049 86.01622894 115.15414612 85.11955261 115.15872192 C76.92360674 115.19877178 68.72769366 115.2292344 60.53167248 115.24888802 C56.31786619 115.25933175 52.10414066 115.27350166 47.89038086 115.29614258 C43.82498186 115.31785 39.75966062 115.32982786 35.69420815 115.33501816 C34.14203988 115.3387177 32.58987594 115.34594186 31.03774071 115.35672379 C28.86613087 115.37121093 26.69484363 115.3732428 24.52319336 115.37231445 C23.28631271 115.37675568 22.04943207 115.3811969 20.77507019 115.38577271 C17.75683594 115.14526367 17.75683594 115.14526367 14.75683594 113.14526367 C14.41625977 110.34790039 14.41625977 110.34790039 14.46386719 106.82495117 C14.47836914 104.93969727 14.47836914 104.93969727 14.49316406 103.01635742 C14.51830078 101.69764648 14.5434375 100.37893555 14.56933594 99.02026367 C14.58438111 97.68043464 14.59806981 96.34058964 14.61035156 95.00073242 C14.64580722 91.71517525 14.69522745 88.43041785 14.75683594 85.14526367 C21.73481968 84.22555586 28.52661949 84.02454323 35.55957031 84.0793457 C37.28086906 84.08635498 37.28086906 84.08635498 39.03694153 84.09350586 C41.51518216 84.10396358 43.99341433 84.11661109 46.47163391 84.1312294 C50.39820501 84.15334437 54.3247272 84.1673633 58.25134277 84.17892456 C69.4109556 84.21220343 80.5704915 84.25395214 91.72998047 84.31665039 C98.56789209 84.35497475 105.40572439 84.3773359 112.24372864 84.39095688 C114.84318846 84.39899483 117.44263742 84.41258053 120.04203796 84.43188858 C123.6794953 84.45844394 127.31655912 84.46626761 130.95410156 84.4699707 C132.55346306 84.48850601 132.55346306 84.48850601 134.18513489 84.50741577 C141.73445666 84.48720553 148.04261607 83.37379559 154.56933594 79.45776367 C161.58119697 72.04522487 161.93672119 63.09614693 162.38183594 53.39526367 C162.43339844 52.42459961 162.48496094 51.45393555 162.53808594 50.45385742 C162.60382813 49.07133789 162.60382813 49.07133789 162.67089844 47.66088867 C162.71166504 46.81816406 162.75243164 45.97543945 162.79443359 45.10717773 C162.98357607 43.14086092 162.98357607 43.14086092 161.75683594 42.14526367 C159.76581051 42.03976441 157.77099562 42.00558406 155.77719116 41.99809265 C153.82611198 41.9873597 153.82611198 41.9873597 151.83561707 41.97640991 C150.38015771 41.97356917 148.9246981 41.9708575 147.46923828 41.96826172 C145.9466486 41.96199947 144.42406045 41.95535288 142.901474 41.948349 C137.88191807 41.92725323 132.86236169 41.91693195 127.84277344 41.90698242 C126.11300261 41.90293497 124.38323195 41.89881805 122.65346146 41.89463234 C114.5157187 41.8755576 106.37798507 41.86133925 98.24022424 41.85302037 C88.868113 41.84328096 79.49624003 41.81705791 70.12421262 41.77651948 C62.87136215 41.74623395 55.6185794 41.73153921 48.36566699 41.72823936 C44.03966443 41.72590022 39.7139157 41.71709154 35.38798141 41.69177818 C31.30526028 41.66827837 27.22295597 41.66435086 23.1401844 41.67453957 C21.65324189 41.67503 20.16627736 41.66885757 18.67939949 41.65498352 C5.69348286 41.54074327 -9.31182576 42.69284778 -19.24316406 52.14526367 Z M141.75683594 96.14526367 C140.76683594 96.80526367 139.77683594 97.46526367 138.75683594 98.14526367 C137.09488384 98.50135935 135.4274585 98.83235929 133.75683594 99.14526367 C131.97211337 99.75131621 130.20021343 100.3959927 128.44042969 101.07104492 C127.42787109 101.45583008 126.4153125 101.84061523 125.37207031 102.23706055 C124.32341797 102.63989258 123.27476562 103.04272461 122.19433594 103.45776367 C114.10768793 106.55466925 105.99388566 109.47127889 97.75683594 112.14526367 C98.93246094 113.07338867 98.93246094 113.07338867 100.13183594 114.02026367 C102.75683594 116.14526367 102.75683594 116.14526367 104.75683594 118.14526367 C104.32731987 124.81406572 99.32607457 129.67020581 94.75683594 134.14526367 C90.05847942 138.22762262 84.95165337 141.73083598 79.75683594 145.14526367 C78.67789063 145.85553711 77.59894531 146.56581055 76.48730469 147.29760742 C65.91984241 153.75053179 54.32929148 157.86204932 42.75683594 162.14526367 C50.96413532 167.61679659 63.58606258 164.89207764 72.75683594 163.14526367 C89.57108435 159.18561856 104.77180219 151.17950793 118.02246094 140.21166992 C120.57554729 138.28226609 122.73987826 137.15275136 125.75683594 136.14526367 C125.75683594 136.80526367 125.75683594 137.46526367 125.75683594 138.14526367 C127.54295904 139.95220123 127.54295904 139.95220123 129.75683594 141.77026367 C130.49933594 142.4019043 131.24183594 143.03354492 132.00683594 143.68432617 C132.58433594 144.16643555 133.16183594 144.64854492 133.75683594 145.14526367 C136.04854491 142.8535547 136.14414409 142.03986816 136.64233398 138.92675781 C136.78555588 138.05567886 136.92877777 137.18459991 137.07633972 136.28712463 C137.22227066 135.34441208 137.3682016 134.40169952 137.51855469 133.43041992 C137.75092583 131.98039833 137.75092583 131.98039833 137.98799133 130.50108337 C138.31378389 128.45480561 138.63546542 126.40786975 138.95336914 124.36035156 C139.44207939 121.22225339 139.94712274 118.0870968 140.45410156 114.9519043 C140.76823688 112.9657316 141.08141989 110.97940799 141.39355469 108.99291992 C141.54555832 108.0522316 141.69756195 107.11154327 141.85417175 106.14234924 C142.05481987 104.83100258 142.05481987 104.83100258 142.25952148 103.49316406 C142.44033516 102.33972252 142.44033516 102.33972252 142.62480164 101.16297913 C142.89782132 98.93905336 142.89782132 98.93905336 141.75683594 96.14526367 Z M40.75683594 162.14526367 C38.77683594 163.13526367 38.77683594 163.13526367 36.75683594 164.14526367 C37.82328709 165.44159988 37.82328709 165.44159988 40.31933594 165.20776367 C41.12371094 165.18713867 41.92808594 165.16651367 42.75683594 165.14526367 C42.09683594 164.15526367 41.43683594 163.16526367 40.75683594 162.14526367 Z " fill="#004BEB" transform="translate(92.2431640625,3.854736328125)"/>
<path d="M0 0 C16 0 16 0 22 3 C23.84862688 6.69725375 23.47587094 10.96461442 23 15 C21.20353146 17.93423195 20.0558929 19.47205355 17 21 C15.29297265 21.06996014 13.58331997 21.08440154 11.875 21.0625 C10.26625 21.041875 8.6575 21.02125 7 21 C7 24.96 7 28.92 7 33 C4.69 33 2.38 33 0 33 C0 22.11 0 11.22 0 0 Z " fill="#F3F7FC" transform="translate(207,233)"/>
<path d="M0 0 C2.96922861 1.79349379 5.42452071 3.84904142 7 7 C7.51124099 12.20460087 7.86132441 16.56445931 5.125 21.125 C1.37302783 24.43556368 -1.64828655 24.3875099 -6.515625 24.359375 C-9 24 -9 24 -12.0625 21.625 C-15.42515219 17.06914865 -15.52938751 13.55375622 -15 8 C-12.19987409 1.2207478 -7.12353422 -0.99979428 0 0 Z " fill="#F4F8FD" transform="translate(264,242)"/>
<path d="M0 0 C1.18613892 0.00785522 1.18613892 0.00785522 2.39624023 0.01586914 C3.67724609 0.02070313 3.67724609 0.02070313 4.98413086 0.02563477 C5.88196289 0.03401367 6.77979492 0.04239258 7.70483398 0.05102539 C8.6065332 0.05553711 9.50823242 0.06004883 10.43725586 0.06469727 C12.67234712 0.07652315 14.90730835 0.09300319 17.14233398 0.11352539 C17.14233398 2.42352539 17.14233398 4.73352539 17.14233398 7.11352539 C12.85233398 7.11352539 8.56233398 7.11352539 4.14233398 7.11352539 C4.14233398 9.42352539 4.14233398 11.73352539 4.14233398 14.11352539 C8.10233398 14.11352539 12.06233398 14.11352539 16.14233398 14.11352539 C16.14233398 16.09352539 16.14233398 18.07352539 16.14233398 20.11352539 C12.18233398 20.11352539 8.22233398 20.11352539 4.14233398 20.11352539 C4.14233398 24.40352539 4.14233398 28.69352539 4.14233398 33.11352539 C1.83233398 33.11352539 -0.47766602 33.11352539 -2.85766602 33.11352539 C-2.88231994 28.57454834 -2.9005039 24.03560996 -2.91259766 19.49658203 C-2.91763741 17.95132773 -2.92446921 16.40607823 -2.93310547 14.86083984 C-2.94518678 12.6442751 -2.95089774 10.42777321 -2.95532227 8.21118164 C-2.96048355 7.51638199 -2.96564484 6.82158234 -2.97096252 6.10572815 C-2.97115878 4.44123209 -2.9195573 2.7768704 -2.85766602 1.11352539 C-1.85766602 0.11352539 -1.85766602 0.11352539 0 0 Z " fill="#E5EFFC" transform="translate(39.857666015625,232.886474609375)"/>
<path d="M0 0 C1.98 0 3.96 0 6 0 C6.33 5.61 6.66 11.22 7 17 C7.825 15.845 8.65 14.69 9.5 13.5 C11.36046719 11.28791341 12.32408821 10.14414606 15.1796875 9.53515625 C17.375 9.5625 17.375 9.5625 21 10 C20.3503125 10.79664063 20.3503125 10.79664063 19.6875 11.609375 C19.130625 12.31578125 18.57375 13.0221875 18 13.75 C17.443125 14.44609375 16.88625 15.1421875 16.3125 15.859375 C14.65152802 18.14984749 14.65152802 18.14984749 15 22 C16.51854119 24.36128688 16.51854119 24.36128688 18.5 26.625 C22 30.80555556 22 30.80555556 22 33 C16.97927461 33.96891192 16.97927461 33.96891192 14 33 C11.11947059 29.62412722 9.0410037 25.92893212 7 22 C6.67 25.63 6.34 29.26 6 33 C4.02 33 2.04 33 0 33 C0 22.11 0 11.22 0 0 Z " fill="#F4F8FD" transform="translate(174,233)"/>
<path d="M0 0 C8.91 0 17.82 0 27 0 C26.67 2.31 26.34 4.62 26 7 C22.7 7 19.4 7 16 7 C16 15.58 16 24.16 16 33 C13.69 33 11.38 33 9 33 C9 24.42 9 15.84 9 7 C6.03 7 3.06 7 0 7 C0 4.69 0 2.38 0 0 Z " fill="#E9F3FD" transform="translate(92,233)"/>
<path d="M0 0 C4.6 2.2 4.6 2.2 6 5 C6.08342159 6.44848582 6.10732861 7.90070869 6.09765625 9.3515625 C6.09443359 10.20234375 6.09121094 11.053125 6.08789062 11.9296875 C6.07951172 12.81914062 6.07113281 13.70859375 6.0625 14.625 C6.05798828 15.5221875 6.05347656 16.419375 6.04882812 17.34375 C6.03702591 19.56256648 6.02056155 21.78125018 6 24 C3.33333333 24 0.66666667 24 -2 24 C-3.9490625 24.12375 -3.9490625 24.12375 -5.9375 24.25 C-9.7091572 24.23630977 -9.7091572 24.23630977 -12 22.375 C-13.2766188 19.34303035 -13.41616519 17.25996064 -13 14 C-11.14657225 11.44050454 -10.06243607 11.02081202 -7 10 C-4.66700175 9.96045766 -2.33291811 9.95598268 0 10 C-0.33 8.68 -0.66 7.36 -1 6 C-3.97 6 -6.94 6 -10 6 C-10.33 5.01 -10.66 4.02 -11 3 C-7.48132256 -0.37793034 -4.7663619 -0.50172231 0 0 Z " fill="#F1F7FD" transform="translate(145,242)"/>
<path d="M0 0 C0.33 0 0.66 0 1 0 C1.07026097 21.25424319 1.12307159 42.50846707 1.15543652 63.76280308 C1.1708674 73.63284259 1.19188419 83.50280971 1.22631836 93.37280273 C1.25633692 101.98128067 1.27560242 110.58970614 1.28226548 119.19823498 C1.28615675 123.75113008 1.29522186 128.30387514 1.31719017 132.85672188 C1.33775274 137.15358526 1.34379445 141.45023869 1.33932304 145.74714661 C1.3401395 147.31310103 1.34598627 148.87906345 1.35761642 150.4449749 C1.52877135 174.70684297 1.52877135 174.70684297 -4 183 C-3.14481969 175.73096737 -3.14481969 175.73096737 -2.50585938 172.50585938 C-0.39287675 161.29552609 -0.78032325 150.04960297 -0.875 138.6875 C-0.88505156 136.5787803 -0.89417355 134.47005595 -0.90234375 132.36132812 C-0.92418092 127.2407689 -0.95859056 122.12043682 -1 117 C-1.33 117 -1.66 117 -2 117 C-2.02312428 107.10810624 -2.04091552 97.21621886 -2.05181217 87.32430363 C-2.05704082 82.7315736 -2.06413812 78.138862 -2.07543945 73.54614258 C-2.086269 69.11766312 -2.09227698 64.68920144 -2.09487724 60.26070976 C-2.09673137 58.56734372 -2.10035175 56.87397871 -2.10573006 55.18062019 C-2.1129414 52.81708768 -2.1139909 50.45362955 -2.11352539 48.09008789 C-2.11712067 47.38302704 -2.12071594 46.67596619 -2.12442017 45.94747925 C-2.11405216 41.11405216 -2.11405216 41.11405216 -1 40 C-0.83970312 37.04470496 -0.74042672 34.11017543 -0.68359375 31.15234375 C-0.66281265 30.2659169 -0.64203156 29.37949005 -0.62062073 28.46620178 C-0.555026 25.623383 -0.49619448 22.78046883 -0.4375 19.9375 C-0.3943242 18.01496394 -0.35071022 16.09243766 -0.30664062 14.16992188 C-0.19933457 9.44671332 -0.09809549 4.72340847 0 0 Z " fill="#0147E0" transform="translate(312,71)"/>
<path d="M0 0 C2.17157403 1.82947675 2.92100806 3.28725667 3.23364258 6.1081543 C3.29577418 8.66219764 3.26105503 11.19632028 3.1875 13.75 C3.16719727 15.08224609 3.16719727 15.08224609 3.14648438 16.44140625 C3.11121309 18.62822578 3.06192752 20.81379966 3 23 C1.02 23 -0.96 23 -3 23 C-3.33 17.39 -3.66 11.78 -4 6 C-5.65 6 -7.3 6 -9 6 C-10.52106634 9.04213267 -10.37429338 12.28047572 -10.5625 15.625 C-10.60568359 16.33140625 -10.64886719 17.0378125 -10.69335938 17.765625 C-10.79944751 19.51018537 -10.90022889 21.25506697 -11 23 C-12.98 23 -14.96 23 -17 23 C-17 15.41 -17 7.82 -17 0 C-14.33333333 0 -11.66666667 0 -9 0 C-5.8168485 -1.59157575 -3.38676935 -0.77242108 0 0 Z " fill="#F3F8FD" transform="translate(89,243)"/>
<path d="M0 0 C1 1 1 1 1.0625 3.5625 C1.041875 4.366875 1.02125 5.17125 1 6 C-0.27875 5.95875 -1.5575 5.9175 -2.875 5.875 C-5.01871492 5.75787127 -5.01871492 5.75787127 -7 6 C-9.30746414 7.87773264 -9.30746414 7.87773264 -9.25 10.9375 C-9.23517754 14.17282787 -9.23517754 14.17282787 -7 17 C-3.41642759 17.25015873 -3.41642759 17.25015873 0 17 C0 18.98 0 20.96 0 23 C-8.98737084 23.78530425 -8.98737084 23.78530425 -13.0625 20.625 C-16.40076776 16.10218561 -16.6783888 12.52933337 -16 7 C-14.38970649 3.83692346 -12.97868759 1.80392195 -10.25 -0.4375 C-6.65666224 -1.33583444 -3.63482 -0.65545934 0 0 Z " fill="#EFF6FC" transform="translate(170,243)"/>
<path d="M0 0 C0.33 0 0.66 0 1 0 C1.07420211 4.07502794 1.1286257 8.14979392 1.16479492 12.2253418 C1.17987397 13.61147919 1.2003405 14.99756894 1.22631836 16.38354492 C1.26273716 18.37658146 1.27813018 20.36996723 1.29296875 22.36328125 C1.31653442 24.16212769 1.31653442 24.16212769 1.34057617 25.99731445 C1 29 1 29 -0.38134766 30.87841797 C-2.46240932 32.32040851 -4.05184937 32.56846641 -6.5625 32.8125 C-7.34753906 32.90144531 -8.13257813 32.99039063 -8.94140625 33.08203125 C-11 33 -11 33 -13 31 C-9.7 31 -6.4 31 -3 31 C-3 29.02 -3 27.04 -3 25 C-5.31 25.33 -7.62 25.66 -10 26 C-12.23079726 23.58330297 -12.96940652 22.24984673 -13.375 18.9375 C-13 16 -13 16 -11.875 14.125 C-9.18282457 12.50969474 -7.07846795 12.73800273 -4 13 C-3.34 13.33 -2.68 13.66 -2 14 C-2 12.35 -2 10.7 -2 9 C-1.67 9 -1.34 9 -1 9 C-0.67 6.03 -0.34 3.06 0 0 Z " fill="#074CE6" transform="translate(173,235)"/>
<path d="M0 0 C1.98 0 3.96 0 6 0 C6.33 0.99 6.66 1.98 7 3 C7.66 2.01 8.32 1.02 9 0 C11.625 -0.1875 11.625 -0.1875 14 0 C14 1.98 14 3.96 14 6 C13.21625 6.268125 12.4325 6.53625 11.625 6.8125 C8.71885077 7.84814432 8.71885077 7.84814432 7 11 C6.54227937 13.73872955 6.54227937 13.73872955 6.375 16.6875 C6.26285156 18.17830078 6.26285156 18.17830078 6.1484375 19.69921875 C6.09945312 20.45847656 6.05046875 21.21773438 6 22 C4.02 22 2.04 22 0 22 C0 14.74 0 7.48 0 0 Z " fill="#F8FAFD" transform="translate(233,243)"/>
<path d="M0 0 C1.65 0 3.3 0 5 0 C5.33 0.99 5.66 1.98 6 3 C6.4125 2.505 6.825 2.01 7.25 1.5 C9 0 9 0 13 0 C13 1.98 13 3.96 13 6 C12.195625 6.12375 11.39125 6.2475 10.5625 6.375 C9.2940625 6.684375 9.2940625 6.684375 8 7 C6.5192152 9.9615696 6.64685963 12.83506295 6.4375 16.125 C6.35371094 17.40632813 6.26992187 18.68765625 6.18359375 20.0078125 C6.09271484 21.48894531 6.09271484 21.48894531 6 23 C4.02 23 2.04 23 0 23 C0 15.41 0 7.82 0 0 Z " fill="#F5F8FD" transform="translate(118,243)"/>
<path d="M0 0 C1.98 0 3.96 0 6 0 C6 7.59 6 15.18 6 23 C4.02 23 2.04 23 0 23 C0 15.41 0 7.82 0 0 Z " fill="#F5FAFD" transform="translate(61,243)"/>
<path d="M0 0 C4.455 0.99 4.455 0.99 9 2 C8.01 3.485 8.01 3.485 7 5 C5.35 5 3.7 5 2 5 C2 12.59 2 20.18 2 28 C3.98 28 5.96 28 8 28 C8 20.41 8 12.82 8 5 C8.66 5.33 9.32 5.66 10 6 C10 13.59 10 21.18 10 29 C7.03 29 4.06 29 1 29 C-0.38308781 26.23382437 -0.11210196 23.98982 -0.09765625 20.8984375 C-0.09443359 19.68671875 -0.09121094 18.475 -0.08789062 17.2265625 C-0.07951172 15.95554688 -0.07113281 14.68453125 -0.0625 13.375 C-0.05798828 12.09625 -0.05347656 10.8175 -0.04882812 9.5 C-0.03701203 6.33328708 -0.02053815 3.16666644 0 0 Z " fill="#012EE2" transform="translate(59,238)"/>
<path d="M0 0 C2.3431213 0.25561323 4.67843403 0.59270772 7 1 C8.52491998 4.04983996 8.23562548 6.6423369 8 10 C6.8125 12 6.8125 12 5 13 C2.4375 12.875 2.4375 12.875 0 12 C-2.31332486 8.53001271 -2.33957563 7.07490752 -2 3 C-1.34 2.01 -0.68 1.02 0 0 Z " fill="#0642E5" transform="translate(257,248)"/>
<path d="M0 0 C0.66 0.33 1.32 0.66 2 1 C1.505 1.639375 1.01 2.27875 0.5 2.9375 C-1.5210747 7.06386085 -1.73143686 10.48049011 -1 15 C0.10190842 17.60928098 1.39339283 19.64029572 3 22 C-0.875 20.125 -0.875 20.125 -2 19 C-2.66 20.32 -3.32 21.64 -4 23 C-6.79134852 23.19425873 -9.58283687 23.38069517 -12.375 23.5625 C-13.1690625 23.61857422 -13.963125 23.67464844 -14.78125 23.73242188 C-20.7734375 24.11328125 -20.7734375 24.11328125 -23 23 C-23 22.34 -23 21.68 -23 21 C-22.30132812 21.01160156 -21.60265625 21.02320313 -20.8828125 21.03515625 C-19.97273437 21.04417969 -19.06265625 21.05320312 -18.125 21.0625 C-16.76761719 21.07990234 -16.76761719 21.07990234 -15.3828125 21.09765625 C-12.9831415 21.16249257 -12.9831415 21.16249257 -11 20 C-11 20.66 -11 21.32 -11 22 C-9.02 22 -7.04 22 -5 22 C-5 15.73 -5 9.46 -5 3 C-4.34 3.66 -3.68 4.32 -3 5 C-2.01 3.35 -1.02 1.7 0 0 Z " fill="#032EE0" transform="translate(156,244)"/>
<path d="M0 0 C6.39075249 -0.36174071 6.39075249 -0.36174071 9 1.1875 C10 3 10 3 9.875 5.5625 C9 8 9 8 6 10 C2.8125 10.125 2.8125 10.125 0 10 C0 6.7 0 3.4 0 0 Z " fill="#0D44E5" transform="translate(214,239)"/>
<path d="M0 0 C0.33 0 0.66 0 1 0 C1.07420211 4.07502794 1.1286257 8.14979392 1.16479492 12.2253418 C1.17987397 13.61147919 1.2003405 14.99756894 1.22631836 16.38354492 C1.26273716 18.37658146 1.27813018 20.36996723 1.29296875 22.36328125 C1.31653442 24.16212769 1.31653442 24.16212769 1.34057617 25.99731445 C1 29 1 29 -0.38134766 30.87841797 C-2.46240932 32.32040851 -4.05184937 32.56846641 -6.5625 32.8125 C-7.34753906 32.90144531 -8.13257813 32.99039063 -8.94140625 33.08203125 C-11 33 -11 33 -13 31 C-9.7 30.67 -6.4 30.34 -3 30 C-2.34 25.38 -1.68 20.76 -1 16 C-3.97 15.505 -3.97 15.505 -7 15 C-7 14.67 -7 14.34 -7 14 C-5.35 14 -3.7 14 -2 14 C-2 12.35 -2 10.7 -2 9 C-1.67 9 -1.34 9 -1 9 C-0.67 6.03 -0.34 3.06 0 0 Z " fill="#022AE1" transform="translate(173,235)"/>
<path d="M0 0 C1.53166168 4.08443115 0.63081652 7.79455657 0 12 C-0.66 12 -1.32 12 -2 12 C-2 10.68 -2 9.36 -2 8 C-6.29 8 -10.58 8 -15 8 C-14.34 7.34 -13.68 6.68 -13 6 C-13 5.01 -13 4.02 -13 3 C-11.84371094 2.92652344 -11.84371094 2.92652344 -10.6640625 2.8515625 C-9.66117188 2.77679688 -8.65828125 2.70203125 -7.625 2.625 C-6.62726562 2.55539063 -5.62953125 2.48578125 -4.6015625 2.4140625 C-1.84491121 2.23636036 -1.84491121 2.23636036 0 0 Z " fill="#0656E8" transform="translate(59,239)"/>
<path d="M0 0 C2.66270106 3.9940516 3.1235689 6.63402862 3.09765625 11.32421875 C3.09443359 12.35224609 3.09121094 13.38027344 3.08789062 14.43945312 C3.07951172 15.51130859 3.07113281 16.58316406 3.0625 17.6875 C3.05798828 18.77095703 3.05347656 19.85441406 3.04882812 20.97070312 C3.03703743 23.64719085 3.02058063 26.32356777 3 29 C2.67 29 2.34 29 2 29 C1.67 23.72 1.34 18.44 1 13 C-0.32 14.32 -1.64 15.64 -3 17 C-3.66 16.67 -4.32 16.34 -5 16 C-4.360625 15.401875 -3.72125 14.80375 -3.0625 14.1875 C-0.12860483 9.65329837 -0.18569688 5.30164592 0 0 Z " fill="#0528DE" transform="translate(230,237)"/>
<path d="M0 0 C1.99954746 -0.04254356 4.00041636 -0.04080783 6 0 C8.13061575 2.13061575 7.55395437 6.49442471 7.75 9.4375 C7.81832031 10.22705078 7.88664063 11.01660156 7.95703125 11.83007812 C8.109375 14.12109375 8.109375 14.12109375 8 18 C7.01 18.66 6.02 19.32 5 20 C5 14.06 5 8.12 5 2 C3.02 2 1.04 2 -1 2 C-0.67 1.34 -0.34 0.68 0 0 Z " fill="#0839E6" transform="translate(175,231)"/>
<path d="M0 0 C0.33 0.99 0.66 1.98 1 3 C-1.3125 6.1875 -1.3125 6.1875 -4 9 C-4.66 9 -5.32 9 -6 9 C-3.50127818 12.8373228 -0.9156164 16.45960866 2 20 C1.67 20.66 1.34 21.32 1 22 C-1.97 18.37 -4.94 14.74 -8 11 C-6.4005386 7.80107719 -5.17187081 5.84646265 -2.875 3.25 C-2.33617187 2.63640625 -1.79734375 2.0228125 -1.2421875 1.390625 C-0.62730469 0.70226562 -0.62730469 0.70226562 0 0 Z " fill="#052DE2" transform="translate(195,243)"/>
<path d="M0 0 C7 7 7 7 7 12 C5.02 12 3.04 12 1 12 C0.67 8.04 0.34 4.08 0 0 Z " fill="#0438E3" transform="translate(180,254)"/>
<path d="M0 0 C1.67542976 0.28604898 3.34385343 0.61781233 5 1 C6.125 4.75 6.125 4.75 5 7 C3.33388095 7.042721 1.66617115 7.04063832 0 7 C-1 6 -1 6 -1.125 3.5 C-1 1 -1 1 0 0 Z " fill="#EDF4FD" transform="translate(62,233)"/>
<path d="M0 0 C-0.33 1.65 -0.66 3.3 -1 5 C-2.65 5 -4.3 5 -6 5 C-6.33 3.68 -6.66 2.36 -7 1 C-4.53721199 -0.231394 -2.7204945 -0.07159196 0 0 Z " fill="#0B38E1" transform="translate(145,256)"/>
<path d="M0 0 C4.455 0.99 4.455 0.99 9 2 C8.01 3.485 8.01 3.485 7 5 C4.375 5.1875 4.375 5.1875 2 5 C1.34 3.35 0.68 1.7 0 0 Z " fill="#063AE5" transform="translate(59,238)"/>
<path d="M0 0 C1.10844919 3.32534757 0.84454356 5.62182575 0 9 C-0.33 9 -0.66 9 -1 9 C-1 7.02 -1 5.04 -1 3 C-2.65 3.33 -4.3 3.66 -6 4 C-5.67 3.01 -5.34 2.02 -5 1 C-3.35 0.67 -1.7 0.34 0 0 Z " fill="#0328DF" transform="translate(248,248)"/>
<path d="M0 0 C0.99 0.33 1.98 0.66 3 1 C2.67 4.3 2.34 7.6 2 11 C1.34 10.67 0.68 10.34 0 10 C0 6.7 0 3.4 0 0 Z " fill="#0041E4" transform="translate(2,192)"/>
<path d="M0 0 C1.98 0 3.96 0 6 0 C5.67 1.32 5.34 2.64 5 4 C5 3.01 5 2.02 5 1 C4.34 1 3.68 1 3 1 C2.67 2.32 2.34 3.64 2 5 C1.34 5 0.68 5 0 5 C0 3.35 0 1.7 0 0 Z " fill="#0040E3" transform="translate(217,241)"/>
<path d="M0 0 C0.33 0 0.66 0 1 0 C1.06058594 0.75925781 1.12117187 1.51851562 1.18359375 2.30078125 C1.26738281 3.29464844 1.35117188 4.28851563 1.4375 5.3125 C1.51871094 6.29863281 1.59992188 7.28476563 1.68359375 8.30078125 C1.91812559 11.09375599 1.91812559 11.09375599 3 14 C2.01 14 1.02 14 0 14 C0 9.38 0 4.76 0 0 Z " fill="#0757E9" transform="translate(182,233)"/>
<path d="M0 0 C0.33 0.66 0.66 1.32 1 2 C-0.98 4.97 -0.98 4.97 -3 8 C-3.99 7.67 -4.98 7.34 -6 7 C-4.02 4.69 -2.04 2.38 0 0 Z " fill="#0046DF" transform="translate(22,25)"/>
<path d="" fill="#007FFF" transform="translate(0,0)"/>
<path d="M0 0 C2 1 2 1 2 1 Z " fill="#003FFF" transform="translate(141,166)"/>
<path d="" fill="#007FFF" transform="translate(0,0)"/>
<path d="" fill="#0000FF" transform="translate(0,0)"/>
<path d="" fill="#0055FF" transform="translate(0,0)"/>
<path d="" fill="#0055FF" transform="translate(0,0)"/>
<path d="" fill="#0000FF" transform="translate(0,0)"/>
<path d="" fill="#007FFF" transform="translate(0,0)"/>
<path d="" fill="#0055FF" transform="translate(0,0)"/>
<path d="" fill="#0000FF" transform="translate(0,0)"/>
<path d="" fill="#0000FF" transform="translate(0,0)"/>
<path d="" fill="#0000FF" transform="translate(0,0)"/>
<path d="" fill="#007FFF" transform="translate(0,0)"/>
<path d="" fill="#0000FF" transform="translate(0,0)"/>
<path d="" fill="#0000FF" transform="translate(0,0)"/>
<path d="" fill="#0000FF" transform="translate(0,0)"/>
<path d="" fill="#0000FF" transform="translate(0,0)"/>
<path d="" fill="#0055FF" transform="translate(0,0)"/>
<path d="" fill="#0000FF" transform="translate(0,0)"/>
<path d="" fill="#0000FF" transform="translate(0,0)"/>
<path d="" fill="#0000FF" transform="translate(0,0)"/>
<path d="" fill="#0000FF" transform="translate(0,0)"/>
<path d="" fill="#0000FF" transform="translate(0,0)"/>
<path d="" fill="#007FFF" transform="translate(0,0)"/>
<path d="" fill="#0000FF" transform="translate(0,0)"/>
<path d="" fill="#0055D4" transform="translate(0,0)"/>
</svg>
