<svg xmlns="http://www.w3.org/2000/svg" viewBox="0 0 512 512" width="512" height="512">
  <rect width="512" height="512" rx="110" fill="#FFFFFF" stroke="#E8ECF4" stroke-width="2"/>
  <g opacity="0.08">
    <circle cx="128" cy="128" r="2" fill="#0D1C45"/>
    <circle cx="256" cy="128" r="2" fill="#0D1C45"/>
    <circle cx="384" cy="128" r="2" fill="#0D1C45"/>
    <circle cx="128" cy="256" r="2" fill="#0D1C45"/>
    <circle cx="256" cy="256" r="2" fill="#0D1C45"/>
    <circle cx="384" cy="256" r="2" fill="#0D1C45"/>
    <circle cx="128" cy="384" r="2" fill="#0D1C45"/>
    <circle cx="256" cy="384" r="2" fill="#0D1C45"/>
    <circle cx="384" cy="384" r="2" fill="#0D1C45"/>
  </g>
  <rect x="108" y="300" width="72" height="130" rx="14" fill="#0D1C45"/>
  <rect x="220" y="235" width="72" height="195" rx="14" fill="#0D1C45"/>
  <rect x="332" y="152" width="72" height="278" rx="14" fill="#0D1C45"/>
  <polyline points="144,296 256,231 368,148" fill="none" stroke="#1ED47A" stroke-width="11" stroke-linecap="round" stroke-linejoin="round"/>
  <circle cx="144" cy="296" r="9" fill="#1ED47A"/>
  <circle cx="256" cy="231" r="9" fill="#1ED47A"/>
  <circle cx="368" cy="148" r="18" fill="#1ED47A"/>
  <circle cx="368" cy="148" r="9" fill="#FFFFFF"/>
</svg>